<svg xmlns="http://www.w3.org/2000/svg" xmlns:xlink="http://www.w3.org/1999/xlink" width="40"
    zoomAndPan="magnify" viewBox="0 0 30 30.000001" height="40" preserveAspectRatio="xMidYMid meet"
    version="1.0">
    <defs>
        <clipPath id="273581bd54">
            <path d="M 19 3.128906 L 27 3.128906 L 27 25.628906 L 19 25.628906 Z M 19 3.128906 "
                clip-rule="nonzero" />
        </clipPath>
        <clipPath id="9a1e6e9970">
            <path
                d="M 3.09375 3.128906 L 11 3.128906 L 11 25.628906 L 3.09375 25.628906 Z M 3.09375 3.128906 "
                clip-rule="nonzero" />
        </clipPath>
    </defs>
    <path fill="#2e7d32"
        d="M 8.300781 11.308594 L 14.074219 11.3125 L 21.839844 11.3125 L 21.839844 17.449219 L 8.300781 17.449219 C 8.300781 13.355469 8.300781 13.355469 8.300781 11.308594 C 8.449219 11.222656 8.125 11.308594 8.300781 11.308594 Z M 8.300781 11.308594 "
        fill-opacity="1" fill-rule="evenodd" />
    <path fill="#ffffff"
        d="M 8.300781 11.308594 L 14.074219 11.3125 L 21.839844 11.3125 L 21.839844 17.449219 L 8.300781 17.449219 C 8.300781 13.355469 8.300781 13.355469 8.300781 11.308594 C 8.449219 11.222656 8.125 11.308594 8.300781 11.308594 Z M 8.300781 11.308594 "
        fill-opacity="0.1" fill-rule="evenodd" />
    <g clip-path="url(#273581bd54)">
        <path fill="#2e7d32"
            d="M 25.410156 3.269531 L 20.207031 6.414062 C 19.925781 6.582031 19.753906 6.882812 19.753906 7.207031 L 19.753906 21.636719 C 19.753906 21.960938 19.929688 22.265625 20.214844 22.433594 L 25.421875 25.492188 C 25.867188 25.757812 26.449219 25.613281 26.71875 25.171875 C 26.804688 25.027344 26.851562 24.863281 26.851562 24.695312 L 26.851562 4.0625 C 26.851562 3.546875 26.429688 3.132812 25.90625 3.132812 C 25.730469 3.132812 25.558594 3.179688 25.410156 3.269531 Z M 25.410156 3.269531 "
            fill-opacity="1" fill-rule="evenodd" />
    </g>
    <g clip-path="url(#9a1e6e9970)">
        <path fill="#2e7d32"
            d="M 4.578125 3.269531 L 9.921875 6.425781 C 10.210938 6.597656 10.382812 6.894531 10.382812 7.21875 L 10.382812 21.636719 C 10.382812 21.964844 10.203125 22.269531 9.910156 22.4375 L 4.566406 25.496094 C 4.105469 25.761719 3.507812 25.617188 3.230469 25.175781 C 3.140625 25.03125 3.09375 24.867188 3.09375 24.699219 L 3.09375 4.0625 C 3.09375 3.546875 3.527344 3.132812 4.066406 3.132812 C 4.246094 3.132812 4.421875 3.179688 4.578125 3.269531 Z M 4.578125 3.269531 "
            fill-opacity="1" fill-rule="evenodd" />
    </g>
</svg>