<svg xmlns="http://www.w3.org/2000/svg" xmlns:xlink="http://www.w3.org/1999/xlink" 
width="160" height="10" viewBox="10 10 100 11"
    preserveAspectRatio="xMidYMid meet" version="1.0">
    <defs>
        <g />
        <clipPath id="f4e61b6253">
            <path
                d="M 9 9.964844 L 13.363281 9.964844 L 13.363281 20.382812 L 9 20.382812 Z M 9 9.964844 "
                clip-rule="nonzero" />
        </clipPath>
        <clipPath id="19e707b5de">
            <path
                d="M 2.207031 9.964844 L 6 9.964844 L 6 20.382812 L 2.207031 20.382812 Z M 2.207031 9.964844 "
                clip-rule="nonzero" />
        </clipPath>
    </defs>
    <path fill="#ffffff"
        d="M 4.605469 13.808594 L 10.847656 13.808594 L 10.847656 16.691406 L 4.605469 16.691406 C 4.605469 14.769531 4.605469 14.769531 4.605469 13.808594 C 4.675781 13.765625 4.527344 13.808594 4.605469 13.808594 Z M 4.605469 13.808594 "
        fill-opacity="1" fill-rule="evenodd" />
    <path fill="#000000"
        d="M 4.605469 13.808594 L 10.847656 13.808594 L 10.847656 16.691406 L 4.605469 16.691406 C 4.605469 14.769531 4.605469 14.769531 4.605469 13.808594 C 4.675781 13.765625 4.527344 13.808594 4.605469 13.808594 Z M 4.605469 13.808594 "
        fill-opacity="0.1" fill-rule="evenodd" />
    <g clip-path="url(#f4e61b6253)">
        <path fill="#ffffff"
            d="M 12.496094 10.03125 L 10.09375 11.507812 C 9.964844 11.589844 9.886719 11.730469 9.886719 11.882812 L 9.886719 18.65625 C 9.886719 18.808594 9.96875 18.953125 10.101562 19.03125 L 12.5 20.46875 C 12.707031 20.589844 12.972656 20.523438 13.097656 20.316406 C 13.136719 20.25 13.160156 20.171875 13.160156 20.09375 L 13.160156 10.40625 C 13.160156 10.164062 12.964844 9.96875 12.722656 9.96875 C 12.644531 9.96875 12.5625 9.992188 12.496094 10.03125 Z M 12.496094 10.03125 "
            fill-opacity="1" fill-rule="evenodd" />
    </g>
    <g clip-path="url(#19e707b5de)">
        <path fill="#ffffff"
            d="M 2.890625 10.03125 L 5.355469 11.515625 C 5.484375 11.59375 5.566406 11.734375 5.566406 11.886719 L 5.566406 18.65625 C 5.566406 18.8125 5.484375 18.953125 5.347656 19.03125 L 2.882812 20.46875 C 2.671875 20.59375 2.398438 20.523438 2.269531 20.316406 C 2.226562 20.25 2.207031 20.171875 2.207031 20.09375 L 2.207031 10.40625 C 2.207031 10.164062 2.40625 9.96875 2.652344 9.96875 C 2.738281 9.96875 2.820312 9.992188 2.890625 10.03125 Z M 2.890625 10.03125 "
            fill-opacity="1" fill-rule="evenodd" />
    </g>
    <g fill="#ffffff" fill-opacity="1">
        <g transform="translate(15.019676, 18.669639)">
            <g>
                <path
                    d="M 0.671875 0 L 0.671875 -6.859375 L 1.921875 -6.859375 L 1.921875 -3.953125 L 5.09375 -3.953125 L 5.09375 -6.859375 L 6.34375 -6.859375 L 6.34375 0 L 5.09375 0 L 5.09375 -2.921875 L 1.921875 -2.921875 L 1.921875 0 Z M 0.671875 0 " />
            </g>
        </g>
    </g>
    <g fill="#ffffff" fill-opacity="1">
        <g transform="translate(22.045301, 18.669639)">
            <g>
                <path
                    d="M 0.671875 0 L 0.671875 -6.859375 L 5.140625 -6.859375 L 5.140625 -5.828125 L 1.921875 -5.828125 L 1.921875 -3.953125 L 4.90625 -3.953125 L 4.90625 -2.921875 L 1.921875 -2.921875 L 1.921875 -1.046875 L 5.171875 -1.046875 L 5.171875 0 Z M 0.671875 0 " />
            </g>
        </g>
    </g>
    <g fill="#ffffff" fill-opacity="1">
        <g transform="translate(27.783173, 18.669639)">
            <g>
                <path
                    d="M 1.5625 0 L 0.234375 0 L 2.640625 -6.859375 L 4.1875 -6.859375 L 6.609375 0 L 5.28125 0 L 3.4375 -5.453125 L 3.390625 -5.453125 Z M 1.609375 -2.6875 L 5.21875 -2.6875 L 5.21875 -1.6875 L 1.609375 -1.6875 Z M 1.609375 -2.6875 " />
            </g>
        </g>
    </g>
    <g fill="#ffffff" fill-opacity="1">
        <g transform="translate(34.617646, 18.669639)">
            <g>
                <path
                    d="M 0.671875 0 L 0.671875 -6.859375 L 1.921875 -6.859375 L 1.921875 -1.046875 L 4.9375 -1.046875 L 4.9375 0 Z M 0.671875 0 " />
            </g>
        </g>
    </g>
    <g fill="#ffffff" fill-opacity="1">
        <g transform="translate(39.963157, 18.669639)">
            <g>
                <path
                    d="M 0.375 -5.828125 L 0.375 -6.859375 L 5.859375 -6.859375 L 5.859375 -5.828125 L 3.734375 -5.828125 L 3.734375 0 L 2.5 0 L 2.5 -5.828125 Z M 0.375 -5.828125 " />
            </g>
        </g>
    </g>
    <g fill="#ffffff" fill-opacity="1">
        <g transform="translate(46.193996, 18.669639)">
            <g>
                <path
                    d="M 0.671875 0 L 0.671875 -6.859375 L 1.921875 -6.859375 L 1.921875 -3.953125 L 5.09375 -3.953125 L 5.09375 -6.859375 L 6.34375 -6.859375 L 6.34375 0 L 5.09375 0 L 5.09375 -2.921875 L 1.921875 -2.921875 L 1.921875 0 Z M 0.671875 0 " />
            </g>
        </g>
    </g>
    <g fill="#ffffff" fill-opacity="1">
        <g transform="translate(53.21962, 18.669639)">
            <g>
                <path
                    d="M 0.671875 0 L 0.671875 -6.859375 L 3.25 -6.859375 C 3.78125 -6.859375 4.222656 -6.757812 4.578125 -6.5625 C 4.941406 -6.375 5.210938 -6.109375 5.390625 -5.765625 C 5.578125 -5.421875 5.671875 -5.03125 5.671875 -4.59375 C 5.671875 -4.15625 5.578125 -3.765625 5.390625 -3.421875 C 5.203125 -3.078125 4.925781 -2.804688 4.5625 -2.609375 C 4.207031 -2.410156 3.765625 -2.3125 3.234375 -2.3125 L 1.53125 -2.3125 L 1.53125 -3.34375 L 3.0625 -3.34375 C 3.375 -3.34375 3.628906 -3.394531 3.828125 -3.5 C 4.023438 -3.601562 4.171875 -3.75 4.265625 -3.9375 C 4.359375 -4.125 4.40625 -4.34375 4.40625 -4.59375 C 4.40625 -4.832031 4.359375 -5.046875 4.265625 -5.234375 C 4.171875 -5.421875 4.023438 -5.566406 3.828125 -5.671875 C 3.628906 -5.773438 3.375 -5.828125 3.0625 -5.828125 L 1.921875 -5.828125 L 1.921875 0 Z M 0.671875 0 " />
            </g>
        </g>
    </g>
    <g fill="#ffffff" fill-opacity="1">
        <g transform="translate(59.296199, 18.669639)">
            <g>
                <path
                    d="M 0.671875 0 L 0.671875 -6.859375 L 3.25 -6.859375 C 3.78125 -6.859375 4.222656 -6.765625 4.578125 -6.578125 C 4.941406 -6.398438 5.210938 -6.144531 5.390625 -5.8125 C 5.578125 -5.488281 5.671875 -5.109375 5.671875 -4.671875 C 5.671875 -4.234375 5.578125 -3.851562 5.390625 -3.53125 C 5.203125 -3.207031 4.925781 -2.957031 4.5625 -2.78125 C 4.207031 -2.601562 3.765625 -2.515625 3.234375 -2.515625 L 1.40625 -2.515625 L 1.40625 -3.546875 L 3.0625 -3.546875 C 3.375 -3.546875 3.628906 -3.585938 3.828125 -3.671875 C 4.023438 -3.753906 4.171875 -3.878906 4.265625 -4.046875 C 4.359375 -4.210938 4.40625 -4.421875 4.40625 -4.671875 C 4.40625 -4.910156 4.351562 -5.113281 4.25 -5.28125 C 4.15625 -5.457031 4.007812 -5.59375 3.8125 -5.6875 C 3.625 -5.78125 3.375 -5.828125 3.0625 -5.828125 L 1.921875 -5.828125 L 1.921875 0 Z M 4.21875 -3.109375 L 5.921875 0 L 4.53125 0 L 2.859375 -3.109375 Z M 4.21875 -3.109375 " />
            </g>
        </g>
    </g>
    <g fill="#ffffff" fill-opacity="1">
        <g transform="translate(65.439848, 18.669639)">
            <g>
                <path
                    d="M 6.8125 -3.4375 C 6.8125 -2.695312 6.671875 -2.0625 6.390625 -1.53125 C 6.117188 -1.007812 5.742188 -0.609375 5.265625 -0.328125 C 4.796875 -0.046875 4.257812 0.09375 3.65625 0.09375 C 3.050781 0.09375 2.507812 -0.046875 2.03125 -0.328125 C 1.5625 -0.609375 1.1875 -1.007812 0.90625 -1.53125 C 0.632812 -2.0625 0.5 -2.695312 0.5 -3.4375 C 0.5 -4.175781 0.632812 -4.804688 0.90625 -5.328125 C 1.1875 -5.859375 1.5625 -6.257812 2.03125 -6.53125 C 2.507812 -6.8125 3.050781 -6.953125 3.65625 -6.953125 C 4.257812 -6.953125 4.796875 -6.8125 5.265625 -6.53125 C 5.742188 -6.257812 6.117188 -5.859375 6.390625 -5.328125 C 6.671875 -4.804688 6.8125 -4.175781 6.8125 -3.4375 Z M 5.5625 -3.4375 C 5.5625 -3.957031 5.476562 -4.394531 5.3125 -4.75 C 5.15625 -5.101562 4.929688 -5.375 4.640625 -5.5625 C 4.359375 -5.75 4.03125 -5.84375 3.65625 -5.84375 C 3.28125 -5.84375 2.945312 -5.75 2.65625 -5.5625 C 2.375 -5.375 2.148438 -5.101562 1.984375 -4.75 C 1.828125 -4.394531 1.75 -3.957031 1.75 -3.4375 C 1.75 -2.914062 1.828125 -2.472656 1.984375 -2.109375 C 2.148438 -1.753906 2.375 -1.484375 2.65625 -1.296875 C 2.945312 -1.109375 3.28125 -1.015625 3.65625 -1.015625 C 4.03125 -1.015625 4.359375 -1.109375 4.640625 -1.296875 C 4.929688 -1.484375 5.15625 -1.753906 5.3125 -2.109375 C 5.476562 -2.472656 5.5625 -2.914062 5.5625 -3.4375 Z M 5.5625 -3.4375 " />
            </g>
        </g>
    </g>
    <g fill="#929191" fill-opacity="1">
        <g transform="translate(72.76622, 17.929246)">
            <g>
                <path
                    d="M 0.21875 0 L 0.21875 -2.15625 L 1.046875 -2.15625 C 1.203125 -2.15625 1.328125 -2.128906 1.421875 -2.078125 C 1.523438 -2.035156 1.601562 -1.972656 1.65625 -1.890625 C 1.707031 -1.804688 1.734375 -1.707031 1.734375 -1.59375 C 1.734375 -1.507812 1.71875 -1.4375 1.6875 -1.375 C 1.65625 -1.3125 1.609375 -1.257812 1.546875 -1.21875 C 1.492188 -1.1875 1.429688 -1.160156 1.359375 -1.140625 L 1.359375 -1.125 C 1.441406 -1.113281 1.515625 -1.085938 1.578125 -1.046875 C 1.648438 -1.003906 1.707031 -0.941406 1.75 -0.859375 C 1.800781 -0.785156 1.828125 -0.695312 1.828125 -0.59375 C 1.828125 -0.476562 1.796875 -0.375 1.734375 -0.28125 C 1.679688 -0.195312 1.597656 -0.128906 1.484375 -0.078125 C 1.378906 -0.0234375 1.25 0 1.09375 0 Z M 0.609375 -0.328125 L 1.03125 -0.328125 C 1.164062 -0.328125 1.265625 -0.351562 1.328125 -0.40625 C 1.390625 -0.457031 1.421875 -0.53125 1.421875 -0.625 C 1.421875 -0.6875 1.40625 -0.742188 1.375 -0.796875 C 1.34375 -0.847656 1.296875 -0.882812 1.234375 -0.90625 C 1.179688 -0.9375 1.113281 -0.953125 1.03125 -0.953125 L 0.609375 -0.953125 Z M 0.609375 -1.234375 L 0.984375 -1.234375 C 1.054688 -1.234375 1.117188 -1.242188 1.171875 -1.265625 C 1.222656 -1.296875 1.265625 -1.332031 1.296875 -1.375 C 1.328125 -1.425781 1.34375 -1.484375 1.34375 -1.546875 C 1.34375 -1.628906 1.3125 -1.695312 1.25 -1.75 C 1.195312 -1.8125 1.113281 -1.84375 1 -1.84375 L 0.609375 -1.84375 Z M 0.609375 -1.234375 " />
            </g>
        </g>
    </g>
    <g fill="#929191" fill-opacity="1">
        <g transform="translate(74.722221, 17.929246)">
            <g>
                <path
                    d="M 0.0625 -2.15625 L 0.5 -2.15625 L 1.03125 -1.203125 L 1.0625 -1.203125 L 1.578125 -2.15625 L 2.03125 -2.15625 L 1.234375 -0.8125 L 1.234375 0 L 0.84375 0 L 0.84375 -0.8125 Z M 0.0625 -2.15625 " />
            </g>
        </g>
    </g>
    <g fill="#929191" fill-opacity="1">
        <g transform="translate(76.818767, 17.929246)">
            <g />
        </g>
    </g>
    <g fill="#929191" fill-opacity="1">
        <g transform="translate(77.55742, 17.929246)">
            <g>
                <path
                    d="M 0.21875 0 L 0.21875 -2.15625 L 1.59375 -2.15625 L 1.59375 -1.828125 L 0.609375 -1.828125 L 0.609375 -1.25 L 1.5 -1.25 L 1.5 -0.921875 L 0.609375 -0.921875 L 0.609375 0 Z M 0.21875 0 " />
            </g>
        </g>
    </g>
    <g fill="#929191" fill-opacity="1">
        <g transform="translate(79.299961, 17.929246)">
            <g>
                <path
                    d="M 0.21875 0 L 0.21875 -2.15625 L 1.015625 -2.15625 C 1.179688 -2.15625 1.320312 -2.125 1.4375 -2.0625 C 1.550781 -2.007812 1.632812 -1.929688 1.6875 -1.828125 C 1.75 -1.722656 1.78125 -1.601562 1.78125 -1.46875 C 1.78125 -1.332031 1.75 -1.210938 1.6875 -1.109375 C 1.632812 -1.003906 1.550781 -0.925781 1.4375 -0.875 C 1.320312 -0.820312 1.179688 -0.796875 1.015625 -0.796875 L 0.4375 -0.796875 L 0.4375 -1.109375 L 0.96875 -1.109375 C 1.0625 -1.109375 1.140625 -1.125 1.203125 -1.15625 C 1.265625 -1.1875 1.3125 -1.226562 1.34375 -1.28125 C 1.375 -1.332031 1.390625 -1.394531 1.390625 -1.46875 C 1.390625 -1.539062 1.375 -1.601562 1.34375 -1.65625 C 1.3125 -1.71875 1.265625 -1.757812 1.203125 -1.78125 C 1.140625 -1.8125 1.0625 -1.828125 0.96875 -1.828125 L 0.609375 -1.828125 L 0.609375 0 Z M 1.328125 -0.984375 L 1.859375 0 L 1.421875 0 L 0.90625 -0.984375 Z M 1.328125 -0.984375 " />
            </g>
        </g>
    </g>
    <g fill="#929191" fill-opacity="1">
        <g transform="translate(81.235886, 17.929246)">
            <g>
                <path
                    d="M 0.21875 0 L 0.21875 -2.15625 L 1.625 -2.15625 L 1.625 -1.828125 L 0.609375 -1.828125 L 0.609375 -1.25 L 1.546875 -1.25 L 1.546875 -0.921875 L 0.609375 -0.921875 L 0.609375 -0.328125 L 1.625 -0.328125 L 1.625 0 Z M 0.21875 0 " />
            </g>
        </g>
    </g>
    <g fill="#929191" fill-opacity="1">
        <g transform="translate(83.043943, 17.929246)">
            <g>
                <path
                    d="M 0.21875 0 L 0.21875 -2.15625 L 1.625 -2.15625 L 1.625 -1.828125 L 0.609375 -1.828125 L 0.609375 -1.25 L 1.546875 -1.25 L 1.546875 -0.921875 L 0.609375 -0.921875 L 0.609375 -0.328125 L 1.625 -0.328125 L 1.625 0 Z M 0.21875 0 " />
            </g>
        </g>
    </g>
    <g fill="#929191" fill-opacity="1">
        <g transform="translate(84.852, 17.929246)">
            <g>
                <path
                    d="M 2.0625 -1.4375 L 1.671875 -1.4375 C 1.660156 -1.5 1.640625 -1.550781 1.609375 -1.59375 C 1.578125 -1.644531 1.535156 -1.6875 1.484375 -1.71875 C 1.441406 -1.757812 1.390625 -1.789062 1.328125 -1.8125 C 1.273438 -1.832031 1.21875 -1.84375 1.15625 -1.84375 C 1.039062 -1.84375 0.9375 -1.8125 0.84375 -1.75 C 0.75 -1.6875 0.675781 -1.597656 0.625 -1.484375 C 0.570312 -1.378906 0.546875 -1.242188 0.546875 -1.078125 C 0.546875 -0.910156 0.570312 -0.769531 0.625 -0.65625 C 0.675781 -0.550781 0.75 -0.46875 0.84375 -0.40625 C 0.9375 -0.351562 1.039062 -0.328125 1.15625 -0.328125 C 1.21875 -0.328125 1.273438 -0.332031 1.328125 -0.34375 C 1.390625 -0.363281 1.441406 -0.390625 1.484375 -0.421875 C 1.535156 -0.453125 1.578125 -0.492188 1.609375 -0.546875 C 1.640625 -0.597656 1.660156 -0.65625 1.671875 -0.71875 L 2.0625 -0.71875 C 2.039062 -0.613281 2.003906 -0.515625 1.953125 -0.421875 C 1.910156 -0.335938 1.847656 -0.257812 1.765625 -0.1875 C 1.691406 -0.113281 1.601562 -0.0546875 1.5 -0.015625 C 1.394531 0.015625 1.273438 0.03125 1.140625 0.03125 C 0.953125 0.03125 0.785156 -0.0078125 0.640625 -0.09375 C 0.492188 -0.1875 0.375 -0.316406 0.28125 -0.484375 C 0.195312 -0.648438 0.15625 -0.847656 0.15625 -1.078125 C 0.15625 -1.304688 0.195312 -1.503906 0.28125 -1.671875 C 0.375 -1.835938 0.492188 -1.960938 0.640625 -2.046875 C 0.785156 -2.140625 0.953125 -2.1875 1.140625 -2.1875 C 1.265625 -2.1875 1.378906 -2.171875 1.484375 -2.140625 C 1.585938 -2.109375 1.675781 -2.054688 1.75 -1.984375 C 1.832031 -1.921875 1.898438 -1.84375 1.953125 -1.75 C 2.003906 -1.65625 2.039062 -1.550781 2.0625 -1.4375 Z M 2.0625 -1.4375 " />
            </g>
        </g>
    </g>
    <g fill="#929191" fill-opacity="1">
        <g transform="translate(87.064784, 17.929246)">
            <g>
                <path
                    d="M 1.578125 -2.15625 L 1.96875 -2.15625 L 1.96875 -0.75 C 1.96875 -0.59375 1.929688 -0.457031 1.859375 -0.34375 C 1.785156 -0.226562 1.679688 -0.132812 1.546875 -0.0625 C 1.421875 0 1.269531 0.03125 1.09375 0.03125 C 0.914062 0.03125 0.757812 0 0.625 -0.0625 C 0.5 -0.132812 0.398438 -0.226562 0.328125 -0.34375 C 0.253906 -0.457031 0.21875 -0.59375 0.21875 -0.75 L 0.21875 -2.15625 L 0.609375 -2.15625 L 0.609375 -0.78125 C 0.609375 -0.6875 0.625 -0.601562 0.65625 -0.53125 C 0.695312 -0.46875 0.753906 -0.414062 0.828125 -0.375 C 0.898438 -0.332031 0.988281 -0.3125 1.09375 -0.3125 C 1.1875 -0.3125 1.269531 -0.332031 1.34375 -0.375 C 1.414062 -0.414062 1.472656 -0.46875 1.515625 -0.53125 C 1.554688 -0.601562 1.578125 -0.6875 1.578125 -0.78125 Z M 1.578125 -2.15625 " />
            </g>
        </g>
    </g>
    <g fill="#929191" fill-opacity="1">
        <g transform="translate(89.247981, 17.929246)">
            <g>
                <path
                    d="M 1.390625 -1.5625 C 1.378906 -1.65625 1.335938 -1.726562 1.265625 -1.78125 C 1.191406 -1.832031 1.097656 -1.859375 0.984375 -1.859375 C 0.898438 -1.859375 0.828125 -1.84375 0.765625 -1.8125 C 0.710938 -1.789062 0.671875 -1.757812 0.640625 -1.71875 C 0.609375 -1.675781 0.59375 -1.628906 0.59375 -1.578125 C 0.59375 -1.535156 0.601562 -1.492188 0.625 -1.453125 C 0.644531 -1.421875 0.671875 -1.394531 0.703125 -1.375 C 0.742188 -1.351562 0.785156 -1.332031 0.828125 -1.3125 C 0.867188 -1.300781 0.910156 -1.289062 0.953125 -1.28125 L 1.15625 -1.234375 C 1.238281 -1.210938 1.316406 -1.1875 1.390625 -1.15625 C 1.460938 -1.125 1.53125 -1.082031 1.59375 -1.03125 C 1.65625 -0.976562 1.703125 -0.914062 1.734375 -0.84375 C 1.773438 -0.78125 1.796875 -0.703125 1.796875 -0.609375 C 1.796875 -0.484375 1.757812 -0.367188 1.6875 -0.265625 C 1.625 -0.171875 1.53125 -0.0976562 1.40625 -0.046875 C 1.289062 0.00390625 1.144531 0.03125 0.96875 0.03125 C 0.800781 0.03125 0.65625 0.00390625 0.53125 -0.046875 C 0.40625 -0.0976562 0.304688 -0.171875 0.234375 -0.265625 C 0.171875 -0.367188 0.140625 -0.492188 0.140625 -0.640625 L 0.515625 -0.640625 C 0.523438 -0.566406 0.550781 -0.503906 0.59375 -0.453125 C 0.632812 -0.398438 0.6875 -0.359375 0.75 -0.328125 C 0.8125 -0.304688 0.882812 -0.296875 0.96875 -0.296875 C 1.050781 -0.296875 1.125 -0.304688 1.1875 -0.328125 C 1.257812 -0.359375 1.3125 -0.394531 1.34375 -0.4375 C 1.382812 -0.488281 1.40625 -0.546875 1.40625 -0.609375 C 1.40625 -0.660156 1.382812 -0.703125 1.34375 -0.734375 C 1.3125 -0.773438 1.265625 -0.804688 1.203125 -0.828125 C 1.148438 -0.859375 1.085938 -0.882812 1.015625 -0.90625 L 0.765625 -0.96875 C 0.585938 -1.019531 0.445312 -1.085938 0.34375 -1.171875 C 0.238281 -1.265625 0.1875 -1.390625 0.1875 -1.546875 C 0.1875 -1.679688 0.222656 -1.796875 0.296875 -1.890625 C 0.367188 -1.984375 0.460938 -2.054688 0.578125 -2.109375 C 0.703125 -2.160156 0.835938 -2.1875 0.984375 -2.1875 C 1.140625 -2.1875 1.273438 -2.160156 1.390625 -2.109375 C 1.503906 -2.054688 1.59375 -1.984375 1.65625 -1.890625 C 1.726562 -1.796875 1.765625 -1.6875 1.765625 -1.5625 Z M 1.390625 -1.5625 " />
            </g>
        </g>
    </g>
    <g fill="#929191" fill-opacity="1">
        <g transform="translate(91.179679, 17.929246)">
            <g>
                <path
                    d="M 0.125 -1.828125 L 0.125 -2.15625 L 1.84375 -2.15625 L 1.84375 -1.828125 L 1.171875 -1.828125 L 1.171875 0 L 0.78125 0 L 0.78125 -1.828125 Z M 0.125 -1.828125 " />
            </g>
        </g>
    </g>
    <g fill="#929191" fill-opacity="1">
        <g transform="translate(93.143078, 17.929246)">
            <g>
                <path
                    d="M 2.140625 -1.078125 C 2.140625 -0.847656 2.09375 -0.648438 2 -0.484375 C 1.914062 -0.316406 1.800781 -0.1875 1.65625 -0.09375 C 1.507812 -0.0078125 1.34375 0.03125 1.15625 0.03125 C 0.957031 0.03125 0.785156 -0.0078125 0.640625 -0.09375 C 0.492188 -0.1875 0.375 -0.316406 0.28125 -0.484375 C 0.195312 -0.648438 0.15625 -0.847656 0.15625 -1.078125 C 0.15625 -1.304688 0.195312 -1.503906 0.28125 -1.671875 C 0.375 -1.835938 0.492188 -1.960938 0.640625 -2.046875 C 0.785156 -2.140625 0.957031 -2.1875 1.15625 -2.1875 C 1.34375 -2.1875 1.507812 -2.140625 1.65625 -2.046875 C 1.800781 -1.960938 1.914062 -1.835938 2 -1.671875 C 2.09375 -1.503906 2.140625 -1.304688 2.140625 -1.078125 Z M 1.75 -1.078125 C 1.75 -1.242188 1.722656 -1.378906 1.671875 -1.484375 C 1.617188 -1.597656 1.546875 -1.6875 1.453125 -1.75 C 1.367188 -1.8125 1.269531 -1.84375 1.15625 -1.84375 C 1.03125 -1.84375 0.921875 -1.8125 0.828125 -1.75 C 0.742188 -1.6875 0.675781 -1.597656 0.625 -1.484375 C 0.570312 -1.378906 0.546875 -1.242188 0.546875 -1.078125 C 0.546875 -0.910156 0.570312 -0.769531 0.625 -0.65625 C 0.675781 -0.550781 0.742188 -0.46875 0.828125 -0.40625 C 0.921875 -0.351562 1.03125 -0.328125 1.15625 -0.328125 C 1.269531 -0.328125 1.367188 -0.351562 1.453125 -0.40625 C 1.546875 -0.46875 1.617188 -0.550781 1.671875 -0.65625 C 1.722656 -0.769531 1.75 -0.910156 1.75 -1.078125 Z M 1.75 -1.078125 " />
            </g>
        </g>
    </g>
    <g fill="#929191" fill-opacity="1">
        <g transform="translate(95.448857, 17.929246)">
            <g>
                <path
                    d="M 0.21875 -2.15625 L 0.6875 -2.15625 L 1.328125 -0.59375 L 1.359375 -0.59375 L 2 -2.15625 L 2.484375 -2.15625 L 2.484375 0 L 2.109375 0 L 2.109375 -1.484375 L 2.078125 -1.484375 L 1.484375 0 L 1.203125 0 L 0.609375 -1.484375 L 0.59375 -1.484375 L 0.59375 0 L 0.21875 0 Z M 0.21875 -2.15625 " />
            </g>
        </g>
    </g>
    <g fill="#929191" fill-opacity="1">
        <g transform="translate(98.145623, 17.929246)">
            <g>
                <path
                    d="M 0.21875 0 L 0.21875 -2.15625 L 1.625 -2.15625 L 1.625 -1.828125 L 0.609375 -1.828125 L 0.609375 -1.25 L 1.546875 -1.25 L 1.546875 -0.921875 L 0.609375 -0.921875 L 0.609375 -0.328125 L 1.625 -0.328125 L 1.625 0 Z M 0.21875 0 " />
            </g>
        </g>
    </g>
    <g fill="#929191" fill-opacity="1">
        <g transform="translate(99.95368, 17.929246)">
            <g>
                <path
                    d="M 0.21875 0 L 0.21875 -2.15625 L 1.015625 -2.15625 C 1.179688 -2.15625 1.320312 -2.125 1.4375 -2.0625 C 1.550781 -2.007812 1.632812 -1.929688 1.6875 -1.828125 C 1.75 -1.722656 1.78125 -1.601562 1.78125 -1.46875 C 1.78125 -1.332031 1.75 -1.210938 1.6875 -1.109375 C 1.632812 -1.003906 1.550781 -0.925781 1.4375 -0.875 C 1.320312 -0.820312 1.179688 -0.796875 1.015625 -0.796875 L 0.4375 -0.796875 L 0.4375 -1.109375 L 0.96875 -1.109375 C 1.0625 -1.109375 1.140625 -1.125 1.203125 -1.15625 C 1.265625 -1.1875 1.3125 -1.226562 1.34375 -1.28125 C 1.375 -1.332031 1.390625 -1.394531 1.390625 -1.46875 C 1.390625 -1.539062 1.375 -1.601562 1.34375 -1.65625 C 1.3125 -1.71875 1.265625 -1.757812 1.203125 -1.78125 C 1.140625 -1.8125 1.0625 -1.828125 0.96875 -1.828125 L 0.609375 -1.828125 L 0.609375 0 Z M 1.328125 -0.984375 L 1.859375 0 L 1.421875 0 L 0.90625 -0.984375 Z M 1.328125 -0.984375 " />
            </g>
        </g>
    </g>
</svg>